<?xml version="1.0" encoding="UTF-8" standalone="no"?>
<svg
   xmlns:dc="http://purl.org/dc/elements/1.1/"
   xmlns:cc="http://creativecommons.org/ns#"
   xmlns:rdf="http://www.w3.org/1999/02/22-rdf-syntax-ns#"
   xmlns:svg="http://www.w3.org/2000/svg"
   xmlns="http://www.w3.org/2000/svg"
   viewBox="0 0 549.09332 247.83867"
   height="247.83867"
   width="549.09332"
   xml:space="preserve"
   id="svg2"
   version="1.1"><metadata
     id="metadata8"><rdf:RDF><cc:Work
         rdf:about=""><dc:format>image/svg+xml</dc:format><dc:type
           rdf:resource="http://purl.org/dc/dcmitype/StillImage" /></cc:Work></rdf:RDF></metadata><defs
     id="defs6"><clipPath
       id="clipPath32"
       clipPathUnits="userSpaceOnUse"><path
         id="path30"
         d="M 0,0 H 837 V 217.44 H 0 Z" /></clipPath><clipPath
       id="clipPath36"
       clipPathUnits="userSpaceOnUse"><path
         id="path34"
         d="M 0,0 H 837 V 217.44 H 0 Z" /></clipPath></defs><g
     transform="matrix(1.3333333,0,0,-1.3333333,0,247.83867)"
     id="g10"><g
       transform="translate(127.957,185.481)"
       id="g12"><g
         id="g14"><g
           id="g16"><g
             id="g18"><g
               transform="translate(-75.192,-51.562)"
               id="g20"><g
                 id="g22"><g
                   transform="scale(0.21353)"
                   id="g24"><g
                     id="g26"><g
                       id="g28" /><g
                       id="g58"><g
                         id="g56"
                         clip-path="url(#clipPath32)"><path
                           id="path38"
                           style="fill:#ffffff;fill-opacity:1;fill-rule:nonzero;stroke:none"
                           d="M 0,0 H 837 V 217.44 H 0 Z" /><g
                           id="g44"><g
                             id="g42"
                             clip-path="url(#clipPath36)"><path
                               id="path40"
                               style="fill:none;stroke:#007400;stroke-width:4;stroke-linecap:square;stroke-linejoin:round;stroke-miterlimit:10;stroke-dasharray:none;stroke-opacity:1"
                               d="m 0,0.217006 99.14876,0.107904 0.576447,0.189275 2.594013,-0.297179 18.44628,0.032134 0.28822,0.123062 0.57645,0.583092 0.28822,-0.011087 0.57645,-0.508813 0.57644,-0.211002 4.89979,-0.007386 9.22314,0.032332 0.28823,0.205853 0.28822,1.388113 0.28822,6.284062 0.28823,23.920886 0.86467,185.174738 0.28822,-35.20679 0.57645,-140.429918 0.28822,-30.785106 0.28822,-8.881808 0.28823,-1.488569 0.57644,-0.106456 1.44112,-0.107273 13.83471,0.097517 0.28822,0.439548 0.28822,1.737939 0.28823,6.584634 0.28822,17.593614 0.57645,42.749093 0.28822,-7.157391 0.57645,-37.582533 0.28822,-15.53382 0.28822,-5.024071 0.28823,3.383379 0.57644,19.682642 0.28823,1.603504 1.15289,-27.572677 0.28822,-0.855245 0.28822,-0.130217 8.6467,-0.01598 12.68182,0.076443 0.28822,0.18583 0.28822,0.669389 0.28823,1.772442 0.28822,2.563765 0.28822,1.469768 0.28823,-0.677028 0.86466,-5.36808 0.28823,-0.545986 0.57644,-0.145118 18.73451,0.022467 1.15289,-0.006073 4.89979,-0.013525 3.45868,-0.004264 1.44112,0.056195 0.28822,0.104986 0.28822,0.286676 0.28823,1.045261 0.86467,6.993966 0.28822,-0.465391 1.15289,-7.616593 0.28823,-0.316263 0.28822,0.013458 0.28822,0.174469 0.28822,0.460856 0.28823,1.690179 0.86467,12.689883 0.28822,-1.816666 0.86467,-11.150645 0.28822,-1.563857 0.28823,-0.397258 1.15289,-0.153915 1.72934,-0.035326 4.32334,0.049779 0.57645,0.311391 0.28822,0.688223 0.28823,2.31766 0.57644,8.000381 0.28823,0.504105 0.28822,-1.465046 1.15289,-9.347797 0.28823,-0.596142 0.28822,-0.292115 0.57644,-0.162963 2.59401,0.050751 0.28823,0.079538 0.28822,0.210695 0.28822,0.794875 0.57645,3.899863 0.28822,0.553118 0.28822,-0.502343 1.1529,-4.77279 0.28822,-0.265928 0.86467,-0.051712 0.86467,0.060336 1.44112,0.588372 0.28822,0.530494 0.28822,1.059917 0.28822,4.059316 0.28823,13.590722 0.57644,40.812517 0.28823,-2.331237 1.44111,-56.372196 0.28823,-1.716126 0.28822,-0.26153 1.44111,-0.022734 15.27583,0.142851 0.28822,0.308217 0.57645,0.798064 0.28822,-0.099299 1.1529,-0.935428 2.594,-0.060674 0.57645,0.238579 0.86467,-0.190226 0.86467,-0.195631 4.89979,-0.007877 3.7469,0.086248 0.57645,0.184317 0.28822,0.155321 0.57645,-0.062258 1.72934,-0.359746 4.03512,0.162486 0.86467,0.811436 1.15289,-0.639337 0.57645,-0.307724 1.44112,-0.029182 11.52892,0.060144 1.15289,0.00914 3.17046,0.070143 0.57645,0.154161 0.28822,0.036146 0.28822,0.396324 0.28822,1.479119 0.57645,4.140475 0.28822,-0.645259 0.28823,-1.219732 0.28822,-0.712855 0.86467,-3.388934 0.28822,-0.219089 0.57645,0.074097 0.28822,0.307814 0.28823,1.388813 0.57644,4.889481 0.28823,0.9045 0.57644,-2.388816 0.57645,-1.305406 0.28822,1.840512 0.28822,4.62526 0.28823,2.731205 0.28822,-1.765256 0.28822,-2.477924 0.28823,-1.34637 0.86467,-6.978405 0.28822,-0.551118 0.57645,-0.067616 0.86466,0.125661 0.28823,0.417319 0.57645,2.105062 0.28822,0.146179 0.28822,-0.601038 0.57645,-0.579894 0.86467,-1.522856 0.57644,-0.130639 1.1529,0.079022 0.86466,0.444668 0.28823,0.350074 0.28822,2.235685 0.57645,13.185964 0.28822,1.772823 0.57645,-6.305893 0.28822,-1.352084 0.86467,-9.112276 0.28822,-0.517904 0.57645,-0.308468 0.57644,-0.275161 0.86468,-0.182247 1.15289,0.029203 0.28822,0.123527 0.57645,0.614139 0.28822,0.034157 0.57645,-0.29698 0.57644,-0.231716 0.57645,-0.261581 1.44111,-0.026876 4.61158,0.09799 0.57644,0.106798 0.28822,0.554824 0.57645,3.167566 0.28822,0.477804 0.28823,-0.414457 0.28822,1.157742 0.28822,2.923857 0.28823,1.260719 0.28822,-0.991826 0.28822,-2.534836 0.28822,-1.147564 0.28823,-0.550687 0.86467,-3.855093 0.28822,-0.197532 2.30579,0.018888 0.86467,0.124362 0.28822,0.4936 0.28822,1.60266 0.28823,2.424768 0.28822,1.161427 0.57644,-2.049529 0.57645,-0.220242 0.86467,-3.029719 0.57645,-0.308956 0.57644,-0.225432 1.15289,-0.045865 4.61158,0.044269 1.15289,0.369513 0.57644,0.42385 0.28823,-0.02257 0.57644,-0.370434 0.57645,-0.167257 0.57645,-0.229088 0.57644,0.076996 0.86467,0.136551 0.28822,0.749234 0.86468,6.465447 0.28822,-0.904725 0.28822,-1.810633 0.28822,-0.391628 0.28823,-0.091334 0.86467,-2.697352 0.28822,-0.506925 0.28822,-0.220227 0.28823,-0.059779 1.15289,-0.761567 1.44111,-0.033535 7.20558,0.095737 0.86467,0.077757 0.28822,0.545933 0.86467,4.20354 0.57645,-1.997217 0.28822,-0.217874 0.28823,0.065702 1.15289,-2.187699 0.28822,-0.14624 0.57645,-0.063356 0.57645,-0.293331 0.86466,-0.001364 2.59401,0.03971 0.57645,0.140943 0.57645,0.026785 0.28822,0.860728 0.28822,2.821772 0.28822,4.390474 0.28823,2.228867 0.57644,-4.370181 0.57645,-0.35634 0.86467,-5.255066 0.28822,-0.374423 0.28823,-0.039689 0.57644,0.232883 1.44112,-0.226872 0.28822,0.025663 0.57645,0.386709 0.28822,6.07e-4 0.57645,-0.293076 0.57644,-0.004138 0.86467,-0.296373 0.57645,0.07926 0.57645,0.163496 0.86466,-0.105316 0.86467,0.066071 0.28823,-0.068804 0.28822,0.058316 0.28822,0.677132 0.28823,2.083742 0.28822,3.087363 0.28822,1.361756 0.57645,-3.559778 0.28822,-0.184591 0.28823,0.39426 0.28822,-0.713423 0.57645,-2.806786 0.28822,-0.403631 0.86467,-0.114931 0.57644,0.027949 0.57645,0.127232 1.72934,-0.121789 0.28822,0.076038 0.28823,0.315273 0.28822,0.492207 0.28822,0.241123 0.86467,-0.619082 0.28823,0.063735 0.28822,-0.089482 0.57644,-0.454262 0.57645,-0.091685 5.76446,0.06457 0.28823,0.226877 0.86467,1.540112 0.57644,-0.72921 0.57645,0.255256 0.28822,0.400067 0.86467,3.493887 0.28822,-1.30288 0.28823,-0.662535 0.28822,1.691662 0.28822,2.414765 0.28823,-0.012833 0.57644,-4.59044 0.28823,-0.121215 0.28822,0.25468 0.28822,-0.765267 0.28822,-1.186734 0.28823,-0.698725 0.28822,-0.216678 0.57645,0.001289 0.86467,0.268 0.57644,-0.177098 1.1529,-0.072866 1.44111,-0.023421 1.15289,0.055685 0.28823,-0.025838 0.28822,0.212834 0.28822,0.980286 0.57645,4.067099 0.28822,-0.270479 0.57645,-2.628404 0.28822,0.139399 0.28823,0.35137 0.28822,-0.738697 0.28822,-1.208018 0.28822,-0.715816 0.28823,-0.209345 1.44111,-0.055665 12.68182,0.010445 1.15289,0.121324 0.28823,-0.060369 0.28822,0.093992 0.28822,0.717719 0.28823,2.102556 0.28822,2.982865 0.28822,1.133867 0.57645,-4.073557 0.28822,-0.099964 0.28823,0.79989 0.28822,-0.437699 0.57645,-2.730493 0.28822,-0.429227 0.57645,0.035267 0.57644,-0.02066 0.57645,-0.080336 0.86467,-0.017675 1.15289,-0.055557 7.4938,0.100042 0.57645,0.038975 0.57644,-0.072192 0.28823,0.240634 0.28822,1.058659 0.57645,4.550355 0.28822,-0.211152 0.57645,-3.505691 0.57644,1.067161 0.57645,-1.608189 0.28822,-1.09452 0.28823,-0.437372 0.57644,-0.103288 0.86467,0.008905 0.28822,0.103505 0.57645,0.428814 0.28822,-0.033448 0.57645,-0.332995 0.86467,0.044272 0.57644,-0.209604 1.44112,-0.032819 7.78202,0.027101 0.57645,0.225992 0.28822,0.230122 0.28823,0.066247 0.57644,-0.34774 0.57645,0.076136 0.57645,-0.038547 1.15289,-0.200519 0.28822,0.046374 0.28823,0.390132 0.28822,1.301873 0.57645,3.609571 0.28822,-1.02284 0.28822,-1.977647 0.28822,-0.610773 0.57645,1.569519 0.28822,-0.756869 0.28823,-1.356992 0.28822,-0.619288 0.28822,-0.338899 0.57645,-0.005548 0.86467,-0.248442 2.30578,-0.013612 2.01757,0.083827 0.57644,0.353351 0.57645,0.610848 0.28822,0.049046 0.86467,-0.676978 0.57645,0.137298 1.15289,-0.553207 0.86467,0.05259 0.86467,0.279901 0.57644,-0.203428 0.57645,0.138293 0.57645,0.043144 0.57644,-0.002989 0.57645,0.213922 0.57645,-0.196962 0.57644,-0.074881 0.57645,0.024717 1.15289,-0.23494 0.57645,0.109984 0.86467,0.54517 0.57644,-0.47333 0.28823,-0.021986 0.57644,0.161161 1.1529,-0.36648 4.03512,0.057282 0.28822,0.076488 0.28823,0.191928 0.28822,0.498229 0.28822,0.742963 0.28822,0.320011 0.86467,-1.370387 0.57645,0.475268 0.28822,-0.197871 0.57645,-0.674104 0.57645,-0.062907 0.57644,0.157421 0.86467,0.662334 0.86467,-0.613522 0.28823,0.172162 0.57644,0.61201 0.28823,-0.0031 0.86466,-0.795493 0.86467,0.153328 0.57645,-0.302795 0.57645,-0.071686 0.86466,0.187268 0.57645,0.169459 0.57645,0.539068 0.28822,-0.049874 0.57645,-0.563444 0.28822,-0.002388 0.57645,0.137143 0.86467,-0.419586 1.15289,-0.022558 0.57644,0.101554 0.57645,0.13156 0.86467,-0.172937 0.86467,0.05382 0.86467,-0.092823 0.57645,0.164764 0.57644,0.197101 0.86467,-0.280333 0.86467,0.067643 0.86467,-0.169451 3.7469,0.012906 1.15289,0.14012 0.57645,-0.09912 2.01756,0.083575 0.57645,-0.085445 0.28822,0.082188 0.57645,0.537488 0.28822,0.235403 0.57645,-0.367605 0.28822,-0.298362 0.28822,-0.048944 0.57645,0.265135 1.15289,-0.218183 0.57645,0.305918 0.86467,-0.41817 0.86467,0.142923 0.57644,-0.089855 1.1529,0.421571 0.86467,-0.265885 0.86467,0.020954 0.86467,-0.237016 2.30578,-0.078992 0.86467,0.145776 0.86467,-0.157025 1.15289,0.017772 1.44112,-0.052718 0.86467,0.120515 0.57644,0.349763 0.28823,-0.020342 0.57644,-0.332516 0.57645,0.071564 0.57644,0.029578 0.86467,-0.206007 2.01757,0.071044 0.57644,0.186704 0.28822,0.106642 0.57645,-0.197741 0.57645,-0.097873 0.57644,0.101829 2.01757,-0.123597 0.86467,0.003722 0.86466,-0.037672 0.28823,0.142108 0.28822,0.555128 0.57645,2.163904 0.28822,0.00693 0.57645,-2.087251 0.28822,-0.347059 0.28822,0.387021 0.28823,0.586294 0.28822,0.051234 0.57645,-1.147098 0.28822,-0.263783 0.57645,-0.073414 3.7469,0.029342 0.28822,0.071404 0.28822,0.341127 0.57645,1.488894 0.28822,0.223753 0.28822,-0.360047 0.57645,-1.02413 0.28822,0.009755 0.28823,0.265244 0.28822,0.085216 0.57645,-0.533541 0.57644,-0.510129 0.57645,-0.081211 5.47624,0.095817 0.86467,0.418495 0.86467,-0.430996 0.86467,0.275751 1.15289,-0.348781 0.57645,0.10267 0.57644,0.775175 0.28823,0.764375 0.28822,0.195178 0.86467,-1.612545 0.28822,0.173117 0.28822,0.40252 0.28823,0.193591 1.15289,-0.86217 0.86467,-0.088657 0.28822,0.148383 0.86467,1.233741 0.86467,-1.102608 0.28823,0.056189 0.57644,0.352364 0.28822,-0.078362 0.57645,-0.469575 0.57645,-0.131326 4.32334,-0.066561 3.17046,0.1463 0.57644,0.330424 0.28823,-0.046125 0.57644,-0.286341 1.44112,0.029024 0.57645,-0.110652 2.01756,-0.065227 4.32335,0.024818 0.28822,0.087181 0.86467,0.751372 0.86467,-0.683182 0.57644,0.333743 0.28823,0.130538 0.28822,-0.115729 0.57645,-0.362055 0.28822,-0.034295 0.57644,0.169087 0.57645,-0.152724 0.57645,-0.120931 1.44111,0.141266 0.57645,-0.13635 2.01756,0.042093 0.57645,0.092615 1.44111,-0.120625 0.86467,0.020572 1.1529,-0.058602 0.57644,0.105744 0.57645,0.17948 1.15289,-0.250356 0.86467,0.105006 0.86467,-0.090828 1.15289,0.430151 0.86467,-0.415738 0.57645,0.102263 0.57644,0.070689 0.86467,-0.215966 0.57645,0.145829 0.57645,0.12407 0.86467,-0.249899 1.72933,-0.006676 1.1529,0.018882 0.57644,0.466992 0.28823,0.186914 0.28822,-0.133225 0.57645,-0.487716 0.28822,-0.0365 0.86467,0.31828 1.15289,-0.313691 1.15289,-0.043078 4.32335,-0.013981 1.15289,0.063597 0.57645,0.109935 1.72934,-0.090361 1.15289,0.225799 0.86467,-0.291142 3.17045,-0.018707 11.81715,0.036635 1.44112,-0.028492 1.44112,0.057067 1.15289,-0.036312 1.44111,-0.024242 3.7469,0.013662 1.1529,-0.006582 0.86467,0.042937 1.15289,0.061206 2.30578,-0.017109 0.86467,0.229143 0.86467,-0.2016 1.44112,0.068429 0.57644,-0.116346 6.62914,0.020968 0.57644,0.137529 1.72934,-0.035171 0.57645,0.036837 1.44111,-0.201626 0.86467,0.018231 0.86467,0.015314 0.57645,0.015603 1.15289,-0.082985 1.72934,-3.92e-4 3.17046,0.071475 2.30578,0.196401 0.57645,-0.165918 0.86467,0.0149 0.57644,0.214882 0.28823,0.124989 0.28822,-0.001212 1.15289,-0.410229 0.57645,0.091365 0.57644,0.154158 1.44112,-0.27762 2.01756,-0.00951 2.59401,0.057688 0.57645,0.06513 1.44111,-0.113983 2.01756,0.115962 0.86467,-0.088845 1.1529,0.259432 0.57644,-0.1877 2.59401,-0.008025 0.86467,-0.049547 0.57645,0.001453 0.86466,0.155626 1.1529,-0.198146 1.72934,0.016808 1.15289,-0.018373 2.30578,0.254542 2.88224,-0.17105 10.08781,-0.075013 7.4938,0.181687 0.57644,0.296591 1.44112,-0.477242 1.44111,0.122545 0.57645,-0.111413 2.59401,0.03526 0.86467,0.216024 1.15289,-0.239196 0.86467,0.071651 1.15289,0.207181 1.1529,-0.313099 0.86467,0.072258 0.57644,0.062376 1.44112,-0.151351 11.81715,0.066943 1.15289,0.133026 1.15289,-0.140517 0.86467,0.087959 2.59401,-0.107881 1.15289,-0.007587 1.15289,-0.01163 2.59401,-0.015242 10.66426,-0.003793 8.35847,0.103989 L 833.2531,0.28713 834.40599,0.249157 837,0.225821 v 0" /></g></g><g
                           id="g54"><path
                             id="path46"
                             style="fill:none;stroke:#000000;stroke-width:0.80000001;stroke-linecap:square;stroke-linejoin:miter;stroke-miterlimit:10;stroke-dasharray:none;stroke-opacity:1"
                             d="M 0,0 V 217.44" /><path
                             id="path48"
                             style="fill:none;stroke:#000000;stroke-width:0.80000001;stroke-linecap:square;stroke-linejoin:miter;stroke-miterlimit:10;stroke-dasharray:none;stroke-opacity:1"
                             d="M 837,0 V 217.44" /><path
                             id="path50"
                             style="fill:none;stroke:#000000;stroke-width:0.80000001;stroke-linecap:square;stroke-linejoin:miter;stroke-miterlimit:10;stroke-dasharray:none;stroke-opacity:1"
                             d="M 0,0 H 837" /><path
                             id="path52"
                             style="fill:none;stroke:#000000;stroke-width:0.80000001;stroke-linecap:square;stroke-linejoin:miter;stroke-miterlimit:10;stroke-dasharray:none;stroke-opacity:1"
                             d="M 0,217.44 H 837" /></g></g></g></g></g></g><g
                 transform="translate(75.192,51.562)"
                 id="g60" /></g></g><g
             id="g62"><path
               id="path64"
               style="fill:none;stroke:#ff0000;stroke-width:0.79701;stroke-linecap:butt;stroke-linejoin:miter;stroke-miterlimit:10;stroke-dasharray:none;stroke-opacity:1"
               d="m -75.11885,-5.66927 v -45.35505 h 5.66928 v 45.35505 z" /></g><g
             id="g66"><path
               id="path68"
               style="fill:none;stroke:#ff0000;stroke-width:0.79701;stroke-linecap:butt;stroke-linejoin:miter;stroke-miterlimit:10;stroke-dasharray:none;stroke-opacity:1"
               d="m -68.88252,-5.66927 v -45.35505 h 5.66926 v 45.35505 z" /></g><g
             id="g70"><path
               id="path72"
               style="fill:none;stroke:#ff0000;stroke-width:0.79701;stroke-linecap:butt;stroke-linejoin:miter;stroke-miterlimit:10;stroke-dasharray:none;stroke-opacity:1"
               d="m 5.66927,-5.66927 v -45.35505 h 5.66928 v 45.35505 z" /></g><g
             id="g74"><path
               id="path76"
               style="fill:none;stroke:#ff0000;stroke-width:0.79701;stroke-linecap:butt;stroke-linejoin:miter;stroke-miterlimit:10;stroke-dasharray:none;stroke-opacity:1"
               d="m 91.56006,-5.66927 v -45.35505 h 5.66928 v 45.35505 z" /></g><g
             id="g78"><path
               id="path80"
               style="fill:none;stroke:#ff0000;stroke-width:0.79701;stroke-linecap:butt;stroke-linejoin:miter;stroke-miterlimit:10;stroke-dasharray:none;stroke-opacity:1"
               d="m 97.79639,-5.66927 v -45.35505 h 5.66928 v 45.35505 z" /></g><g
             id="g82"><path
               id="path84"
               style="fill:none;stroke:#000000;stroke-width:0.79701;stroke-linecap:butt;stroke-linejoin:miter;stroke-miterlimit:10;stroke-dasharray:none;stroke-opacity:1"
               d="m -127.56062,-122.46648 v -8.77087 c 0,-1.10046 0.89207,-1.99255 1.99255,-1.99255 h 238.38016 c 1.10048,0 1.99255,0.89209 1.99255,1.99255 v 8.77087 c 0,1.10047 -0.89207,1.99256 -1.99255,1.99256 h -238.38016 c -1.10048,0 -1.99255,-0.89209 -1.99255,-1.99256 z" /></g><g
             id="g86"><path
               id="path88"
               style="fill:none;stroke:#000000;stroke-width:0.79701;stroke-linecap:butt;stroke-linejoin:miter;stroke-miterlimit:10;stroke-dasharray:none;stroke-opacity:1"
               d="m -62.36288,-149.39587 v -8.77086 c 0,-1.10047 0.89207,-1.99256 1.99255,-1.99256 H 47.61435 c 1.10048,0 1.99255,0.89209 1.99255,1.99256 v 8.77086 c 0,1.10047 -0.89207,1.99255 -1.99255,1.99255 H -60.37033 c -1.10048,0 -1.99255,-0.89208 -1.99255,-1.99255 z" /></g><g
             id="g90"><path
               id="path92"
               style="fill:none;stroke:#000000;stroke-width:0.79701;stroke-linecap:butt;stroke-linejoin:miter;stroke-miterlimit:10;stroke-dasharray:none;stroke-opacity:1"
               d="m -113.38724,-72.85956 v -15.85759 c 0,-1.10046 0.89209,-1.99255 1.99256,-1.99255 h 4.51904 c 1.10046,0 1.99255,0.89209 1.99255,1.99255 v 15.85759 c 0,1.10046 -0.89209,1.99256 -1.99255,1.99256 h -4.51904 c -1.10047,0 -1.99256,-0.8921 -1.99256,-1.99256 z" /></g><g
             id="g94"><path
               id="path96"
               style="fill:none;stroke:#ff0000;stroke-width:0.79701;stroke-linecap:butt;stroke-linejoin:miter;stroke-miterlimit:10;stroke-dasharray:none;stroke-opacity:1"
               d="m -103.46567,-72.85956 v -15.85759 c 0,-1.10046 0.89209,-1.99255 1.99256,-1.99255 h 4.51858 c 1.10047,0 1.99255,0.89209 1.99255,1.99255 v 15.85759 c 0,1.10046 -0.89208,1.99256 -1.99255,1.99256 h -4.51858 c -1.10047,0 -1.99256,-0.8921 -1.99256,-1.99256 z" /></g><g
             id="g98"><path
               id="path100"
               style="fill:none;stroke:#000000;stroke-width:0.79701;stroke-linecap:butt;stroke-linejoin:miter;stroke-miterlimit:10;stroke-dasharray:none;stroke-opacity:1"
               d="m -92.1271,-72.85956 v -15.85759 c 0,-1.10046 0.89207,-1.99255 1.99255,-1.99255 h 4.51901 c 1.10046,0 1.99255,0.89209 1.99255,1.99255 v 15.85759 c 0,1.10046 -0.89209,1.99256 -1.99255,1.99256 h -4.51901 c -1.10048,0 -1.99255,-0.8921 -1.99255,-1.99256 z" /></g><g
             id="g102"><path
               id="path104"
               style="fill:none;stroke:#ff0000;stroke-width:0.79701;stroke-linecap:butt;stroke-linejoin:miter;stroke-miterlimit:10;stroke-dasharray:none;stroke-opacity:1"
               d="m -82.20555,-72.85956 v -15.85759 c 0,-1.10046 0.89207,-1.99255 1.99255,-1.99255 h 4.51859 c 1.10046,0 1.99255,0.89209 1.99255,1.99255 v 15.85759 c 0,1.10046 -0.89209,1.99256 -1.99255,1.99256 H -80.213 c -1.10048,0 -1.99255,-0.8921 -1.99255,-1.99256 z" /></g><g
             id="g106"><path
               id="path108"
               style="fill:none;stroke:#000000;stroke-width:0.79701;stroke-linecap:butt;stroke-linejoin:miter;stroke-miterlimit:10;stroke-dasharray:none;stroke-opacity:1"
               d="m -70.867,-72.85956 v -15.85759 c 0,-1.10046 0.89207,-1.99255 1.99255,-1.99255 h 4.51901 c 1.10047,0 1.99256,0.89209 1.99256,1.99255 v 15.85759 c 0,1.10046 -0.89209,1.99256 -1.99256,1.99256 h -4.51901 c -1.10048,0 -1.99255,-0.8921 -1.99255,-1.99256 z" /></g><g
             id="g110"><path
               id="path112"
               style="fill:none;stroke:#ff0000;stroke-width:0.79701;stroke-linecap:butt;stroke-linejoin:miter;stroke-miterlimit:10;stroke-dasharray:none;stroke-opacity:1"
               d="m -60.94545,-72.85956 v -15.85759 c 0,-1.10046 0.89207,-1.99255 1.99255,-1.99255 h 4.51859 c 1.10048,0 1.99255,0.89209 1.99255,1.99255 v 15.85759 c 0,1.10046 -0.89207,1.99256 -1.99255,1.99256 h -4.51859 c -1.10048,0 -1.99255,-0.8921 -1.99255,-1.99256 z" /></g><g
             id="g114"><path
               id="path116"
               style="fill:none;stroke:#000000;stroke-width:0.79701;stroke-linecap:butt;stroke-linejoin:miter;stroke-miterlimit:10;stroke-dasharray:none;stroke-opacity:1"
               d="m -4.25183,-72.85956 v -15.85759 c 0,-1.10046 0.89207,-1.99255 1.99255,-1.99255 h 4.51856 c 1.10048,0 1.99255,0.89209 1.99255,1.99255 v 15.85759 c 0,1.10046 -0.89207,1.99256 -1.99255,1.99256 h -4.51856 c -1.10048,0 -1.99255,-0.8921 -1.99255,-1.99256 z" /></g><g
             id="g118"><path
               id="path120"
               style="fill:none;stroke:#ff0000;stroke-width:0.79701;stroke-linecap:butt;stroke-linejoin:miter;stroke-miterlimit:10;stroke-dasharray:none;stroke-opacity:1"
               d="m 5.66927,-72.85956 v -15.85759 c 0,-1.10046 0.89209,-1.99255 1.99255,-1.99255 h 4.51901 c 1.10048,0 1.99256,0.89209 1.99256,1.99255 v 15.85759 c 0,1.10046 -0.89208,1.99256 -1.99256,1.99256 H 7.66182 c -1.10046,0 -1.99255,-0.8921 -1.99255,-1.99256 z" /></g><g
             id="g122"><path
               id="path124"
               style="fill:none;stroke:#000000;stroke-width:0.79701;stroke-linecap:butt;stroke-linejoin:miter;stroke-miterlimit:10;stroke-dasharray:none;stroke-opacity:1"
               d="m 79.37114,-72.85956 v -15.85759 c 0,-1.10046 0.89207,-1.99255 1.99256,-1.99255 h 4.51902 c 1.10046,0 1.99255,0.89209 1.99255,1.99255 v 15.85759 c 0,1.10046 -0.89209,1.99256 -1.99255,1.99256 H 81.3637 c -1.10049,0 -1.99256,-0.8921 -1.99256,-1.99256 z" /></g><g
             id="g126"><path
               id="path128"
               style="fill:none;stroke:#ff0000;stroke-width:0.79701;stroke-linecap:butt;stroke-linejoin:miter;stroke-miterlimit:10;stroke-dasharray:none;stroke-opacity:1"
               d="m 89.29227,-72.85956 v -15.85759 c 0,-1.10046 0.89207,-1.99255 1.99255,-1.99255 h 4.51901 c 1.10047,0 1.99256,0.89209 1.99256,1.99255 v 15.85759 c 0,1.10046 -0.89209,1.99256 -1.99256,1.99256 h -4.51901 c -1.10048,0 -1.99255,-0.8921 -1.99255,-1.99256 z" /></g><g
             id="g130"><path
               id="path132"
               style="fill:none;stroke:#000000;stroke-width:0.79701;stroke-linecap:butt;stroke-linejoin:miter;stroke-miterlimit:10;stroke-dasharray:none;stroke-opacity:1"
               d="m 100.63126,-72.85956 v -15.85759 c 0,-1.10046 0.89207,-1.99255 1.99255,-1.99255 h 4.51901 c 1.10047,0 1.99256,0.89209 1.99256,1.99255 v 15.85759 c 0,1.10046 -0.89209,1.99256 -1.99256,1.99256 h -4.51901 c -1.10048,0 -1.99255,-0.8921 -1.99255,-1.99256 z" /></g><g
             id="g134"><path
               id="path136"
               style="fill:none;stroke:#ff0000;stroke-width:0.79701;stroke-linecap:butt;stroke-linejoin:miter;stroke-miterlimit:10;stroke-dasharray:none;stroke-opacity:1"
               d="m 110.55237,-72.85956 v -15.85759 c 0,-1.10046 0.89207,-1.99255 1.99255,-1.99255 h 4.51903 c 1.10048,0 1.99255,0.89209 1.99255,1.99255 v 15.85759 c 0,1.10046 -0.89207,1.99256 -1.99255,1.99256 h -4.51903 c -1.10048,0 -1.99255,-0.8921 -1.99255,-1.99256 z" /></g><g
             id="g138"><path
               id="path140"
               style="fill:none;stroke:#ff0000;stroke-width:0.79701;stroke-linecap:butt;stroke-linejoin:miter;stroke-miterlimit:10;stroke-dasharray:none;stroke-opacity:1"
               d="m -72.28444,-53.29213 -5.4456,-16.33679" /><g
               transform="matrix(-0.31621,-0.94864,0.94864,-0.31621,-77.73004,-69.6289)"
               id="g142"><g
                 id="g144"><path
                   id="path146"
                   style="fill:none;stroke:#ff0000;stroke-width:0.6376;stroke-linecap:round;stroke-linejoin:round;stroke-miterlimit:10;stroke-dasharray:none;stroke-opacity:1"
                   d="M -1.55415,2.0722 C -1.42464,1.29512 0,0.1295 0.38852,0 0,-0.1295 -1.42464,-1.29512 -1.55415,-2.0722" /></g></g></g><g
             id="g148"><path
               id="path150"
               style="fill:none;stroke:#ff0000;stroke-width:0.79701;stroke-linecap:butt;stroke-linejoin:miter;stroke-miterlimit:10;stroke-dasharray:none;stroke-opacity:1"
               d="m -66.04811,-53.29213 9.01363,-16.38805" /><g
               transform="matrix(0.4819,-0.87617,0.87617,0.4819,-57.0345,-69.68016)"
               id="g152"><g
                 id="g154"><path
                   id="path156"
                   style="fill:none;stroke:#ff0000;stroke-width:0.6376;stroke-linecap:round;stroke-linejoin:round;stroke-miterlimit:10;stroke-dasharray:none;stroke-opacity:1"
                   d="M -1.55415,2.0722 C -1.42464,1.29512 0,0.1295 0.38852,0 0,-0.1295 -1.42464,-1.29512 -1.55415,-2.0722" /></g></g></g><g
             id="g158"><path
               id="path160"
               style="fill:none;stroke:#ff0000;stroke-width:0.79701;stroke-linecap:butt;stroke-linejoin:miter;stroke-miterlimit:10;stroke-dasharray:none;stroke-opacity:1"
               d="M 9.92155,-53.29213 V -69.59258" /><g
               transform="rotate(-90,-29.835515,-39.757065)"
               id="g162"><g
                 id="g164"><path
                   id="path166"
                   style="fill:none;stroke:#ff0000;stroke-width:0.6376;stroke-linecap:round;stroke-linejoin:round;stroke-miterlimit:10;stroke-dasharray:none;stroke-opacity:1"
                   d="M -1.55415,2.0722 C -1.42464,1.29512 0,0.1295 0.38852,0 0,-0.1295 -1.42464,-1.29512 -1.55415,-2.0722" /></g></g></g><g
             id="g168"><path
               id="path170"
               style="fill:none;stroke:#ff0000;stroke-width:0.79701;stroke-linecap:butt;stroke-linejoin:miter;stroke-miterlimit:10;stroke-dasharray:none;stroke-opacity:1"
               d="M 94.39491,-53.29213 93.57986,-69.59349" /><g
               transform="matrix(-0.04993,-0.99872,0.99872,-0.04993,93.57986,-69.59349)"
               id="g172"><g
                 id="g174"><path
                   id="path176"
                   style="fill:none;stroke:#ff0000;stroke-width:0.6376;stroke-linecap:round;stroke-linejoin:round;stroke-miterlimit:10;stroke-dasharray:none;stroke-opacity:1"
                   d="M -1.55415,2.0722 C -1.42464,1.29512 0,0.1295 0.38852,0 0,-0.1295 -1.42464,-1.29512 -1.55415,-2.0722" /></g></g></g><g
             id="g178"><path
               id="path180"
               style="fill:none;stroke:#ff0000;stroke-width:0.79701;stroke-linecap:butt;stroke-linejoin:miter;stroke-miterlimit:10;stroke-dasharray:none;stroke-opacity:1"
               d="m 100.63126,-53.29213 13.72058,-16.46445" /><g
               transform="matrix(0.64015,-0.76817,0.76817,0.64015,114.35182,-69.75656)"
               id="g182"><g
                 id="g184"><path
                   id="path186"
                   style="fill:none;stroke:#ff0000;stroke-width:0.6376;stroke-linecap:round;stroke-linejoin:round;stroke-miterlimit:10;stroke-dasharray:none;stroke-opacity:1"
                   d="M -1.55415,2.0722 C -1.42464,1.29512 0,0.1295 0.38852,0 0,-0.1295 -1.42464,-1.29512 -1.55415,-2.0722" /></g></g></g><g
             id="g188"><path
               id="path190"
               style="fill:none;stroke:#000000;stroke-width:1.59404004;stroke-linecap:butt;stroke-linejoin:miter;stroke-miterlimit:10;stroke-dasharray:none;stroke-opacity:1"
               d="m -6.37819,-134.64734 v -10.13304" /><g
               transform="rotate(-90,-75.579285,-69.201095)"
               id="g192"><g
                 id="g194"><path
                   id="path196"
                   style="fill:none;stroke:#000000;stroke-width:1.27522004;stroke-linecap:round;stroke-linejoin:round;stroke-miterlimit:10;stroke-dasharray:none;stroke-opacity:1"
                   d="M -2.27148,3.02866 C -2.0822,1.8929 0,0.18927 0.56786,0 0,-0.18927 -2.0822,-1.8929 -2.27148,-3.02866" /></g></g></g><g
             id="g198"><path
               id="path200"
               style="fill:none;stroke:#000000;stroke-width:1.59404004;stroke-linecap:butt;stroke-linejoin:miter;stroke-miterlimit:10;stroke-dasharray:none;stroke-opacity:1"
               d="m -6.37819,-161.5767 v -10.1335" /><g
               transform="rotate(-90,-89.044195,-82.666005)"
               id="g202"><g
                 id="g204"><path
                   id="path206"
                   style="fill:none;stroke:#000000;stroke-width:1.27522004;stroke-linecap:round;stroke-linejoin:round;stroke-miterlimit:10;stroke-dasharray:none;stroke-opacity:1"
                   d="M -2.27148,3.02866 C -2.0822,1.8929 0,0.18927 0.56786,0 0,-0.18927 -2.0822,-1.8929 -2.27148,-3.02866" /></g></g></g><g
             id="g208"><path
               id="path210"
               style="fill:none;stroke:#000000;stroke-width:0.79701;stroke-linecap:butt;stroke-linejoin:miter;stroke-miterlimit:10;stroke-dasharray:none;stroke-opacity:1"
               d="M 114.80464,-120.47392 153.07259,0" /></g><g
             id="g212"><path
               id="path214"
               style="fill:none;stroke:#000000;stroke-width:0.79701;stroke-linecap:butt;stroke-linejoin:miter;stroke-miterlimit:10;stroke-dasharray:none;stroke-opacity:1"
               d="m 114.80464,-133.2299 38.26795,-48.1895" /></g><g
             id="g216"><path
               id="path218"
               style="fill:#000000;fill-opacity:1;fill-rule:nonzero;stroke:#000000;stroke-width:0.3985;stroke-linecap:butt;stroke-linejoin:miter;stroke-miterlimit:10;stroke-dasharray:none;stroke-opacity:1"
               d="m -40.52765,-80.78856 c 0,1.10046 -0.89207,1.99256 -1.99255,1.99256 -1.10047,0 -1.99256,-0.8921 -1.99256,-1.99256 0,-1.10048 0.89209,-1.99255 1.99256,-1.99255 1.10048,0 1.99255,0.89207 1.99255,1.99255 z" /></g><g
             id="g220"><path
               id="path222"
               style="fill:#000000;fill-opacity:1;fill-rule:nonzero;stroke:#000000;stroke-width:0.3985;stroke-linecap:butt;stroke-linejoin:miter;stroke-miterlimit:10;stroke-dasharray:none;stroke-opacity:1"
               d="m -26.35425,-80.78856 c 0,1.10046 -0.89209,1.99256 -1.99255,1.99256 -1.10048,0 -1.99256,-0.8921 -1.99256,-1.99256 0,-1.10048 0.89208,-1.99255 1.99256,-1.99255 1.10046,0 1.99255,0.89207 1.99255,1.99255 z" /></g><g
             id="g224"><path
               id="path226"
               style="fill:#000000;fill-opacity:1;fill-rule:nonzero;stroke:#000000;stroke-width:0.3985;stroke-linecap:butt;stroke-linejoin:miter;stroke-miterlimit:10;stroke-dasharray:none;stroke-opacity:1"
               d="m -12.18083,-80.78856 c 0,1.10046 -0.89209,1.99256 -1.99256,1.99256 -1.10047,0 -1.99255,-0.8921 -1.99255,-1.99256 0,-1.10048 0.89208,-1.99255 1.99255,-1.99255 1.10047,0 1.99256,0.89207 1.99256,1.99255 z" /></g><g
             id="g228"><path
               id="path230"
               style="fill:#000000;fill-opacity:1;fill-rule:nonzero;stroke:#000000;stroke-width:0.3985;stroke-linecap:butt;stroke-linejoin:miter;stroke-miterlimit:10;stroke-dasharray:none;stroke-opacity:1"
               d="m 23.25266,-80.78856 c 0,1.10046 -0.89209,1.99256 -1.99256,1.99256 -1.10048,0 -1.99255,-0.8921 -1.99255,-1.99256 0,-1.10048 0.89207,-1.99255 1.99255,-1.99255 1.10047,0 1.99256,0.89207 1.99256,1.99255 z" /></g><g
             id="g232"><path
               id="path234"
               style="fill:#000000;fill-opacity:1;fill-rule:nonzero;stroke:#000000;stroke-width:0.3985;stroke-linecap:butt;stroke-linejoin:miter;stroke-miterlimit:10;stroke-dasharray:none;stroke-opacity:1"
               d="m 37.42604,-80.78856 c 0,1.10046 -0.89207,1.99256 -1.99255,1.99256 -1.10047,0 -1.99256,-0.8921 -1.99256,-1.99256 0,-1.10048 0.89209,-1.99255 1.99256,-1.99255 1.10048,0 1.99255,0.89207 1.99255,1.99255 z" /></g><g
             id="g236"><path
               id="path238"
               style="fill:#000000;fill-opacity:1;fill-rule:nonzero;stroke:#000000;stroke-width:0.3985;stroke-linecap:butt;stroke-linejoin:miter;stroke-miterlimit:10;stroke-dasharray:none;stroke-opacity:1"
               d="m 51.59946,-80.78856 c 0,1.10046 -0.89208,1.99256 -1.99256,1.99256 -1.10046,0 -1.99255,-0.8921 -1.99255,-1.99256 0,-1.10048 0.89209,-1.99255 1.99255,-1.99255 1.10048,0 1.99256,0.89207 1.99256,1.99255 z" /></g><g
             id="g240"><path
               id="path242"
               style="fill:#000000;fill-opacity:1;fill-rule:nonzero;stroke:#000000;stroke-width:0.3985;stroke-linecap:butt;stroke-linejoin:miter;stroke-miterlimit:10;stroke-dasharray:none;stroke-opacity:1"
               d="m 65.77286,-80.78856 c 0,1.10046 -0.89209,1.99256 -1.99256,1.99256 -1.10048,0 -1.99255,-0.8921 -1.99255,-1.99256 0,-1.10048 0.89207,-1.99255 1.99255,-1.99255 1.10047,0 1.99256,0.89207 1.99256,1.99255 z" /></g><path
             id="path244"
             style="fill:none;stroke:#000000;stroke-width:0.3985;stroke-linecap:butt;stroke-linejoin:miter;stroke-miterlimit:10;stroke-dasharray:none;stroke-opacity:1"
             d="m -114.80464,-107.71794 c 1.49435,-2.98886 4.98138,-4.98139 9.96277,-4.98139 h 87.7924 c 4.98139,0 8.46842,-1.99252 9.96277,-4.98138 1.49435,2.98886 4.98138,4.98138 9.96275,4.98138 h 87.79244 c 4.98138,0 8.46841,1.99253 9.96277,4.98139" /><g
             id="g246"><g
               id="g248" /><g
               transform="translate(-7.086,-124.725)"
               id="g250"><g
                 id="g252" /><g
                 transform="translate(7.086,124.725)"
                 id="g254" /></g></g><g
             id="g256"><path
               id="path258"
               style="fill:#e6e6e6;fill-opacity:1;fill-rule:nonzero;stroke:#000000;stroke-width:0.79701;stroke-linecap:butt;stroke-linejoin:miter;stroke-miterlimit:10;stroke-dasharray:none;stroke-opacity:1"
               d="m 153.07259,-1.99255 v -177.4343 c 0,-1.10046 0.89209,-1.99255 1.99255,-1.99255 h 126.4104 c 1.10046,0 1.99256,0.89209 1.99256,1.99255 V -1.99255 C 283.4681,-0.89207 282.576,0 281.47554,0 h -126.4104 c -1.10046,0 -1.99255,-0.89207 -1.99255,-1.99255 z" /></g><g
             id="g260"><path
               id="path262"
               style="fill:#ffffff;fill-opacity:1;fill-rule:nonzero;stroke:#000000;stroke-width:0.79701;stroke-linecap:butt;stroke-linejoin:miter;stroke-miterlimit:10;stroke-dasharray:none;stroke-opacity:1"
               d="m 164.41156,-173.75757 v 7.35346 c 0,1.10046 0.89209,1.99255 1.99255,1.99255 h 103.73287 c 1.10046,0 1.99255,-0.89209 1.99255,-1.99255 v -7.35346 c 0,-1.10048 -0.89209,-1.99255 -1.99255,-1.99255 H 166.40411 c -1.10046,0 -1.99255,0.89207 -1.99255,1.99255 z" /></g><g
             id="g264"><path
               id="path266"
               style="fill:#ffffff;fill-opacity:1;fill-rule:nonzero;stroke:#000000;stroke-width:0.79701;stroke-linecap:butt;stroke-linejoin:miter;stroke-miterlimit:10;stroke-dasharray:none;stroke-opacity:1"
               d="m 187.0891,-151.08003 v 7.35343 c 0,1.10047 0.89209,1.99256 1.99255,1.99256 h 58.37779 c 1.10046,0 1.99256,-0.89209 1.99256,-1.99256 v -7.35343 c 0,-1.10048 -0.8921,-1.99256 -1.99256,-1.99256 h -58.37779 c -1.10046,0 -1.99255,0.89208 -1.99255,1.99256 z" /></g><g
             id="g268"><path
               id="path270"
               style="fill:#ffffff;fill-opacity:1;fill-rule:nonzero;stroke:#000000;stroke-width:0.79701;stroke-linecap:butt;stroke-linejoin:miter;stroke-miterlimit:10;stroke-dasharray:none;stroke-opacity:1"
               d="m 164.41156,-128.40292 v 7.35386 c 0,1.10046 0.89209,1.99256 1.99255,1.99256 h 103.73287 c 1.10046,0 1.99255,-0.8921 1.99255,-1.99256 v -7.35386 c 0,-1.10048 -0.89209,-1.99256 -1.99255,-1.99256 H 166.40411 c -1.10046,0 -1.99255,0.89208 -1.99255,1.99256 z" /></g><g
             id="g272"><path
               id="path274"
               style="fill:#ffffff;fill-opacity:1;fill-rule:nonzero;stroke:#000000;stroke-width:0.79701;stroke-linecap:butt;stroke-linejoin:miter;stroke-miterlimit:10;stroke-dasharray:none;stroke-opacity:1"
               d="m 187.0891,-64.35544 v -7.35386 c 0,-1.10048 0.89209,-1.99256 1.99255,-1.99256 h 58.37779 c 1.10046,0 1.99256,0.89208 1.99256,1.99256 v 7.35386 c 0,1.10047 -0.8921,1.99256 -1.99256,1.99256 h -58.37779 c -1.10046,0 -1.99255,-0.89209 -1.99255,-1.99256 z" /></g><g
             id="g276"><path
               id="path278"
               style="fill:#ffffff;fill-opacity:1;fill-rule:nonzero;stroke:#000000;stroke-width:0.79701;stroke-linecap:butt;stroke-linejoin:miter;stroke-miterlimit:10;stroke-dasharray:none;stroke-opacity:1"
               d="m 187.0891,-41.6779 v -7.35387 c 0,-1.10048 0.89209,-1.99255 1.99255,-1.99255 h 58.37779 c 1.10046,0 1.99256,0.89207 1.99256,1.99255 v 7.35387 c 0,1.10046 -0.8921,1.99255 -1.99256,1.99255 h -58.37779 c -1.10046,0 -1.99255,-0.89209 -1.99255,-1.99255 z" /></g><g
             id="g280"><path
               id="path282"
               style="fill:#ffffff;fill-opacity:1;fill-rule:nonzero;stroke:#000000;stroke-width:0.79701;stroke-linecap:butt;stroke-linejoin:miter;stroke-miterlimit:10;stroke-dasharray:none;stroke-opacity:1"
               d="m 164.41156,-26.35425 v 7.35345 c 0,1.10049 0.89209,1.99256 1.99255,1.99256 h 103.73287 c 1.10046,0 1.99255,-0.89207 1.99255,-1.99256 v -7.35345 c 0,-1.10048 -0.89209,-1.99255 -1.99255,-1.99255 H 166.40411 c -1.10046,0 -1.99255,0.89207 -1.99255,1.99255 z" /></g><g
             id="g284"><path
               id="path286"
               style="fill:none;stroke:#000000;stroke-width:1.59404004;stroke-linecap:butt;stroke-linejoin:miter;stroke-miterlimit:10;stroke-dasharray:none;stroke-opacity:1"
               d="m 218.27034,-161.5767 v 4.46375" /><g
               transform="rotate(90,187.69164,30.578695)"
               id="g288"><g
                 id="g290"><path
                   id="path292"
                   style="fill:none;stroke:#000000;stroke-width:1.27522004;stroke-linecap:round;stroke-linejoin:round;stroke-miterlimit:10;stroke-dasharray:none;stroke-opacity:1"
                   d="M -2.27148,3.02866 C -2.0822,1.8929 0,0.18927 0.56786,0 0,-0.18927 -2.0822,-1.8929 -2.27148,-3.02866" /></g></g></g><g
             id="g294"><path
               id="path296"
               style="fill:none;stroke:#000000;stroke-width:1.59404004;stroke-linecap:butt;stroke-linejoin:miter;stroke-miterlimit:10;stroke-dasharray:none;stroke-opacity:1"
               d="m 218.27034,-138.89917 v 4.46376" /><g
               transform="rotate(90,176.35287,41.917465)"
               id="g298"><g
                 id="g300"><path
                   id="path302"
                   style="fill:none;stroke:#000000;stroke-width:1.27522004;stroke-linecap:round;stroke-linejoin:round;stroke-miterlimit:10;stroke-dasharray:none;stroke-opacity:1"
                   d="M -2.27148,3.02866 C -2.0822,1.8929 0,0.18927 0.56786,0 0,-0.18927 -2.0822,-1.8929 -2.27148,-3.02866" /></g></g></g><g
             id="g304"><path
               id="path306"
               style="fill:none;stroke:#000000;stroke-width:1.59404004;stroke-linecap:butt;stroke-linejoin:miter;stroke-miterlimit:10;stroke-dasharray:none;stroke-opacity:1"
               d="m 218.27034,-116.22208 v 38.48029" /><g
               transform="rotate(90,148.00606,70.264275)"
               id="g308"><g
                 id="g310"><path
                   id="path312"
                   style="fill:none;stroke:#000000;stroke-width:1.27522004;stroke-linecap:round;stroke-linejoin:round;stroke-miterlimit:10;stroke-dasharray:none;stroke-opacity:1"
                   d="M -2.27148,3.02866 C -2.0822,1.8929 0,0.18927 0.56786,0 0,-0.18927 -2.0822,-1.8929 -2.27148,-3.02866" /></g></g></g><g
             id="g314"><path
               id="path316"
               style="fill:none;stroke:#000000;stroke-width:1.59404004;stroke-linecap:butt;stroke-linejoin:miter;stroke-miterlimit:10;stroke-dasharray:none;stroke-opacity:1"
               d="m 250.86943,-147.40332 h 26.92937 v 39.68538 h -57.7559" /><g
               transform="rotate(180,110.02145,-53.85897)"
               id="g318"><g
                 id="g320"><path
                   id="path322"
                   style="fill:none;stroke:#000000;stroke-width:1.27522004;stroke-linecap:round;stroke-linejoin:round;stroke-miterlimit:10;stroke-dasharray:none;stroke-opacity:1"
                   d="M -2.27148,3.02866 C -2.0822,1.8929 0,0.18927 0.56786,0 0,-0.18927 -2.0822,-1.8929 -2.27148,-3.02866" /></g></g></g><g
             id="g324"><path
               id="path326"
               style="fill:none;stroke:#000000;stroke-width:1.59404004;stroke-linecap:butt;stroke-linejoin:miter;stroke-miterlimit:10;stroke-dasharray:none;stroke-opacity:1"
               d="m 218.8374,-85.04042 h 47.62242 v 54.07069" /><g
               transform="rotate(90,148.71477,117.74505)"
               id="g328"><g
                 id="g330"><path
                   id="path332"
                   style="fill:none;stroke:#000000;stroke-width:1.27522004;stroke-linecap:round;stroke-linejoin:round;stroke-miterlimit:10;stroke-dasharray:none;stroke-opacity:1"
                   d="M -2.27148,3.02866 C -2.0822,1.8929 0,0.18927 0.56786,0 0,-0.18927 -2.0822,-1.8929 -2.27148,-3.02866" /></g></g></g><g
             id="g334"><path
               id="path336"
               style="fill:none;stroke:#000000;stroke-width:1.59404004;stroke-linecap:butt;stroke-linejoin:miter;stroke-miterlimit:10;stroke-dasharray:none;stroke-opacity:1"
               d="m 218.27034,-59.52846 v 4.46421" /><g
               transform="rotate(90,136.66729,81.603045)"
               id="g338"><g
                 id="g340"><path
                   id="path342"
                   style="fill:none;stroke:#000000;stroke-width:1.27522004;stroke-linecap:round;stroke-linejoin:round;stroke-miterlimit:10;stroke-dasharray:none;stroke-opacity:1"
                   d="M -2.27148,3.02866 C -2.0822,1.8929 0,0.18927 0.56786,0 0,-0.18927 -2.0822,-1.8929 -2.27148,-3.02866" /></g></g></g><g
             id="g344"><path
               id="path346"
               style="fill:none;stroke:#000000;stroke-width:1.59404004;stroke-linecap:butt;stroke-linejoin:miter;stroke-miterlimit:10;stroke-dasharray:none;stroke-opacity:1"
               d="m 218.27034,-36.85092 v 4.46376" /><g
               transform="rotate(90,125.32875,92.94159)"
               id="g348"><g
                 id="g350"><path
                   id="path352"
                   style="fill:none;stroke:#000000;stroke-width:1.27522004;stroke-linecap:round;stroke-linejoin:round;stroke-miterlimit:10;stroke-dasharray:none;stroke-opacity:1"
                   d="M -2.27148,3.02866 C -2.0822,1.8929 0,0.18927 0.56786,0 0,-0.18927 -2.0822,-1.8929 -2.27148,-3.02866" /></g></g></g><g
             id="g354"><g
               transform="translate(-52.607,-130.31)"
               id="g356"><g
                 id="g358"><g
                   transform="translate(-75.35,-55.171)"
                   id="g360"><text
                     id="text364"
                     style="font-variant:normal;font-weight:normal;font-size:9.96259975px;font-family:CMR10;-inkscape-font-specification:CMR10;writing-mode:lr-tb;fill:#000000;fill-opacity:1;fill-rule:nonzero;stroke:none"
                     transform="matrix(1,0,0,-1,75.35,55.171)"><tspan
                       id="tspan362"
                       y="0"
                       x="0 6.368094 10.270444 15.251744 20.786964 24.716215 27.760784 32.742085 36.644436 44.94627 49.37365 56.593544 63.374092 68.909309 73.336693 78.596947 84.132164 88.559547">TransformerEncoder</tspan></text>
<g
                     transform="translate(75.35,55.171)"
                     id="g366" /></g></g><g
                 transform="translate(52.607,130.31)"
                 id="g368" /></g></g><g
             id="g370"><g
               transform="translate(-48.442,-157.239)"
               id="g372"><g
                 id="g374"><g
                   transform="translate(-79.515,-28.242)"
                   id="g376"><text
                     id="text380"
                     style="font-variant:normal;font-weight:normal;font-size:9.96259975px;font-family:CMR10;-inkscape-font-specification:CMR10;writing-mode:lr-tb;fill:#000000;fill-opacity:1;fill-rule:nonzero;stroke:none"
                     transform="matrix(1,0,0,-1,79.515,28.242)"><tspan
                       id="tspan378"
                       y="0"
                       x="0 6.2246323 13.419622 24.21908 29.20038 38.053146 45.248138 51.474762 60.32753 64.201981 69.183281 74.16259 78.589973">FCNonCLStoken</tspan></text>
<g
                     transform="translate(79.515,28.242)"
                     id="g382" /></g></g><g
                 transform="translate(48.442,157.239)"
                 id="g384" /></g></g><g
             id="g386"><g
               transform="translate(-74.055,-180.223)"
               id="g388"><g
                 id="g390"><g
                   transform="translate(-53.902,-5.258)"
                   id="g392"><text
                     id="text396"
                     style="font-variant:normal;font-weight:normal;font-size:9.96259975px;font-family:CMR10;-inkscape-font-specification:CMR10;writing-mode:lr-tb;fill:#000000;fill-opacity:1;fill-rule:nonzero;stroke:none"
                     transform="matrix(1,0,0,-1,53.902,5.258)"><tspan
                       id="tspan394"
                       y="0"
                       x="0 3.5974948 9.1327152 13.560095 18.816362 22.690817 25.458427 30.993649 35.421028 40.402328 44.276783 47.044392 52.025692 60.87846 65.859756 73.089615 80.838531 86.373749 91.355049 96.61132 100.48577 103.25338 108.7886 113.21598 118.19728 122.07174 124.83935 129.82065">IdentifcationorQuantifcation</tspan></text>
<g
                     transform="translate(53.902,5.258)"
                     id="g398" /></g></g><g
                 transform="translate(74.055,180.223)"
                 id="g400" /></g></g><g
             id="g402"><g
               transform="translate(-75.64,-107.158)"
               id="g404"><g
                 id="g406"><g
                   transform="translate(-52.317,-78.323)"
                   id="g408"><text
                     id="text412"
                     style="font-variant:normal;font-weight:normal;font-size:7.97009993px;font-family:CMR8;-inkscape-font-specification:CMR8;writing-mode:lr-tb;fill:#000000;fill-opacity:1;fill-rule:nonzero;stroke:none"
                     transform="matrix(1,0,0,-1,52.317,78.323)"><tspan
                       id="tspan410"
                       y="0"
                       x="0 5.4069157 9.6414299 13.87993 17.64341 22.34816 24.700136 28.040405 32.274921 35.568165 37.920143 42.154655 49.68082 59.088726 64.616791 68.851303 72.191574 74.543549 77.836792 80.188766 84.423286 89.128036 93.362549 98.535942 102.29942 109.11704 114.0609 117.82438 122.52913 127.23388 129.58586 134.2906">Tokenisation&amp;Positionalembedding</tspan></text>
<g
                     transform="translate(52.317,78.323)"
                     id="g414" /></g></g><g
                 transform="translate(75.64,107.158)"
                 id="g416" /></g></g><g
             id="g418"><g
               transform="translate(-112.227,-67.92)"
               id="g420"><g
                 id="g422"><g
                   transform="translate(-15.73,-117.561)"
                   id="g424"><text
                     id="text428"
                     style="font-variant:normal;font-weight:normal;font-size:7.97009993px;font-family:CMR8;-inkscape-font-specification:CMR8;writing-mode:lr-tb;fill:#000000;fill-opacity:1;fill-rule:nonzero;stroke:none"
                     transform="matrix(1,0,0,-1,15.73,117.561)"><tspan
                       id="tspan426"
                       y="0"
                       x="0 6.1162548 11.405213">CLS</tspan></text>
<g
                     transform="translate(15.73,117.561)"
                     id="g430" /></g></g><g
                 transform="translate(112.227,67.92)"
                 id="g432" /></g></g><g
             id="g434"><g
               transform="translate(-114.288,-99.145)"
               id="g436"><g
                 id="g438"><g
                   transform="translate(-13.669,-86.336)"
                   id="g440"><text
                     id="text444"
                     style="font-variant:normal;font-weight:normal;font-size:7.97009993px;font-family:CMR8;-inkscape-font-specification:CMR8;writing-mode:lr-tb;fill:#000000;fill-opacity:1;fill-rule:nonzero;stroke:none"
                     transform="matrix(1,0,0,-1,13.669,86.336)"><tspan
                       id="tspan442"
                       y="0"
                       x="0 3.2932453 7.5277596 11.758288 15.52177">token</tspan></text>
<g
                     transform="translate(13.669,86.336)"
                     id="g446" /></g></g><g
                 transform="translate(114.288,99.145)"
                 id="g448" /></g></g><g
             id="g450"><g
               transform="translate(-101.329,-83.356)"
               id="g452"><g
                 id="g454"><g
                   transform="translate(-26.628,-102.125)"
                   id="g456"><text
                     id="text460"
                     style="font-variant:normal;font-weight:normal;font-size:7.97009993px;font-family:CMR8;-inkscape-font-specification:CMR8;writing-mode:lr-tb;fill:#000000;fill-opacity:1;fill-rule:nonzero;stroke:none"
                     transform="matrix(1,0,0,-1,26.628,102.125)"><tspan
                       id="tspan458"
                       y="0"
                       x="0">0</tspan></text>
<g
                     transform="translate(26.628,102.125)"
                     id="g462" /></g></g><g
                 transform="translate(101.329,83.356)"
                 id="g464" /></g></g><g
             id="g466"><g
               transform="translate(-80.069,-83.356)"
               id="g468"><g
                 id="g470"><g
                   transform="translate(-47.888,-102.125)"
                   id="g472"><text
                     id="text476"
                     style="font-variant:normal;font-weight:normal;font-size:7.97009993px;font-family:CMR8;-inkscape-font-specification:CMR8;writing-mode:lr-tb;fill:#000000;fill-opacity:1;fill-rule:nonzero;stroke:none"
                     transform="matrix(1,0,0,-1,47.888,102.125)"><tspan
                       id="tspan474"
                       y="0"
                       x="0">1</tspan></text>
<g
                     transform="translate(47.888,102.125)"
                     id="g478" /></g></g><g
                 transform="translate(80.069,83.356)"
                 id="g480" /></g></g><g
             id="g482"><g
               transform="translate(-58.81,-83.356)"
               id="g484"><g
                 id="g486"><g
                   transform="translate(-69.147,-102.125)"
                   id="g488"><text
                     id="text492"
                     style="font-variant:normal;font-weight:normal;font-size:7.97009993px;font-family:CMR8;-inkscape-font-specification:CMR8;writing-mode:lr-tb;fill:#000000;fill-opacity:1;fill-rule:nonzero;stroke:none"
                     transform="matrix(1,0,0,-1,69.147,102.125)"><tspan
                       id="tspan490"
                       y="0"
                       x="0">2</tspan></text>
<g
                     transform="translate(69.147,102.125)"
                     id="g494" /></g></g><g
                 transform="translate(58.81,83.356)"
                 id="g496" /></g></g><g
             id="g498"><g
               transform="translate(8.746,-83.46)"
               id="g500"><g
                 id="g502"><g
                   transform="translate(-136.703,-102.021)"
                   id="g504"><text
                     id="text508"
                     style="font-variant:normal;font-weight:normal;font-size:7.97009993px;font-family:CMR8;-inkscape-font-specification:CMR8;writing-mode:lr-tb;fill:#000000;fill-opacity:1;fill-rule:nonzero;stroke:none"
                     transform="matrix(1,0,0,-1,136.703,102.021)"><tspan
                       id="tspan506"
                       y="0"
                       x="0">i</tspan></text>
<g
                     transform="translate(136.703,102.021)"
                     id="g510" /></g></g><g
                 transform="translate(-8.746,83.46)"
                 id="g512" /></g></g><g
             id="g514"><g
               transform="translate(88.23,-82.481)"
               id="g516"><g
                 id="g518"><g
                   transform="translate(-216.187,-103)"
                   id="g520"><text
                     id="text524"
                     style="font-variant:normal;font-weight:normal;font-size:4.98129988px;font-family:CMR5;-inkscape-font-specification:CMR5;writing-mode:lr-tb;fill:#000000;fill-opacity:1;fill-rule:nonzero;stroke:none"
                     transform="matrix(1,0,0,-1,216.187,103)"><tspan
                       id="tspan522"
                       y="0"
                       x="0 4.8846626 7.2368326">N-1</tspan></text>
<g
                     transform="translate(216.187,103)"
                     id="g526" /></g></g><g
                 transform="translate(-88.23,82.481)"
                 id="g528" /></g></g><g
             id="g530"><g
               transform="translate(111.632,-83.511)"
               id="g532"><g
                 id="g534"><g
                   transform="translate(-239.589,-101.97)"
                   id="g536"><text
                     id="text540"
                     style="font-variant:normal;font-weight:normal;font-size:7.97009993px;font-family:CMR8;-inkscape-font-specification:CMR8;writing-mode:lr-tb;fill:#000000;fill-opacity:1;fill-rule:nonzero;stroke:none"
                     transform="matrix(1,0,0,-1,239.589,101.97)"><tspan
                       id="tspan538"
                       y="0"
                       x="0">N</tspan></text>
<g
                     transform="translate(239.589,101.97)"
                     id="g542" /></g></g><g
                 transform="translate(-111.632,83.511)"
                 id="g544" /></g></g><g
             id="g546"><g
               transform="translate(157.145,-11.493)"
               id="g548"><g
                 id="g550"><g
                   transform="translate(-285.102,-173.988)"
                   id="g552"><text
                     id="text556"
                     style="font-variant:normal;font-weight:normal;font-size:9.96259975px;font-family:CMMI10;-inkscape-font-specification:CMMI10;writing-mode:lr-tb;fill:#000000;fill-opacity:1;fill-rule:nonzero;stroke:none"
                     transform="matrix(1,0,0,-1,285.102,173.988)"><tspan
                       id="tspan554"
                       y="0"
                       x="0">L</tspan></text>
<text
                     id="text560"
                     style="font-variant:normal;font-weight:normal;font-size:9.96259975px;font-family:CMSY10;-inkscape-font-specification:CMSY10;writing-mode:lr-tb;fill:#000000;fill-opacity:1;fill-rule:nonzero;stroke:none"
                     transform="matrix(1,0,0,-1,291.883,173.988)"><tspan
                       id="tspan558"
                       y="0"
                       x="0"></tspan></text>
<g
                     transform="translate(285.102,173.988)"
                     id="g562" /></g></g><g
                 transform="translate(-157.145,11.493)"
                 id="g564" /></g></g><g
             id="g566"><g
               transform="translate(205.424,-172.846)"
               id="g568"><g
                 id="g570"><g
                   transform="translate(-333.381,-12.635)"
                   id="g572"><text
                     id="text576"
                     style="font-variant:normal;font-weight:normal;font-size:7.97009993px;font-family:CMR8;-inkscape-font-specification:CMR8;writing-mode:lr-tb;fill:#000000;fill-opacity:1;fill-rule:nonzero;stroke:none"
                     transform="matrix(1,0,0,-1,333.381,12.635)"><tspan
                       id="tspan574"
                       y="0"
                       x="0 5.4069157 9.6414299 13.87993 17.64341 22.34816">Tokens</tspan></text>
<g
                     transform="translate(333.381,12.635)"
                     id="g578" /></g></g><g
                 transform="translate(-205.424,172.846)"
                 id="g580" /></g></g><g
             id="g582"><g
               transform="translate(207.801,-150.125)"
               id="g584"><g
                 id="g586"><g
                   transform="translate(-335.758,-35.356)"
                   id="g588"><text
                     id="text592"
                     style="font-variant:normal;font-weight:normal;font-size:7.97009993px;font-family:CMR8;-inkscape-font-specification:CMR8;writing-mode:lr-tb;fill:#000000;fill-opacity:1;fill-rule:nonzero;stroke:none"
                     transform="matrix(1,0,0,-1,335.758,35.356)"><tspan
                       id="tspan590"
                       y="0"
                       x="0 6.3426056 10.57712 13.877538">Norm</tspan></text>
<g
                     transform="translate(335.758,35.356)"
                     id="g594" /></g></g><g
                 transform="translate(-207.801,150.125)"
                 id="g596" /></g></g><g
             id="g598"><g
               transform="translate(207.801,-70.755)"
               id="g600"><g
                 id="g602"><g
                   transform="translate(-335.758,-114.726)"
                   id="g604"><text
                     id="text608"
                     style="font-variant:normal;font-weight:normal;font-size:7.97009993px;font-family:CMR8;-inkscape-font-specification:CMR8;writing-mode:lr-tb;fill:#000000;fill-opacity:1;fill-rule:nonzero;stroke:none"
                     transform="matrix(1,0,0,-1,335.758,114.726)"><tspan
                       id="tspan606"
                       y="0"
                       x="0 6.3426056 10.57712 13.877538">Norm</tspan></text>
<g
                     transform="translate(335.758,114.726)"
                     id="g610" /></g></g><g
                 transform="translate(-207.801,70.755)"
                 id="g612" /></g></g><g
             id="g614"><g
               transform="translate(208.867,-48.078)"
               id="g616"><g
                 id="g618"><g
                   transform="translate(-336.824,-137.403)"
                   id="g620"><text
                     id="text624"
                     style="font-variant:normal;font-weight:normal;font-size:7.97009993px;font-family:CMR8;-inkscape-font-specification:CMR8;writing-mode:lr-tb;fill:#000000;fill-opacity:1;fill-rule:nonzero;stroke:none"
                     transform="matrix(1,0,0,-1,336.824,137.403)"><tspan
                       id="tspan622"
                       y="0"
                       x="0 7.7541103 13.043069">MLP</tspan></text>
<g
                     transform="translate(336.824,137.403)"
                     id="g626" /></g></g><g
                 transform="translate(-208.867,48.078)"
                 id="g628" /></g></g><g
             id="g630"><g
               transform="translate(187.278,-24.67)"
               id="g632"><g
                 id="g634"><g
                   transform="translate(-315.235,-160.811)"
                   id="g636"><text
                     id="text640"
                     style="font-variant:normal;font-weight:normal;font-size:7.97009993px;font-family:CMR8;-inkscape-font-specification:CMR8;writing-mode:lr-tb;fill:#000000;fill-opacity:1;fill-rule:nonzero;stroke:none"
                     transform="matrix(1,0,0,-1,315.235,160.811)"><tspan
                       id="tspan638"
                       y="0"
                       x="0 5.7591944 10.463944 14.227426 18.693073 23.397823 27.169273 34.695438 41.281929 45.986679 49.279926 53.984676 58.689426">EncodedOutput</tspan></text>
<g
                     transform="translate(315.235,160.811)"
                     id="g642" /></g></g><g
                 transform="translate(-187.278,24.67)"
                 id="g644" /></g></g><g
             id="g646"><g
               transform="translate(201.226,-126.717)"
               id="g648"><g
                 id="g650"><g
                   transform="translate(-329.183,-58.764)"
                   id="g652"><text
                     id="text656"
                     style="font-variant:normal;font-weight:normal;font-size:7.97009993px;font-family:CMR8;-inkscape-font-specification:CMR8;writing-mode:lr-tb;fill:#000000;fill-opacity:1;fill-rule:nonzero;stroke:none"
                     transform="matrix(1,0,0,-1,329.183,58.764)"><tspan
                       id="tspan654"
                       y="0"
                       x="0 7.7541103 14.096716 23.260736 26.553982 30.788496">MHA(2)</tspan></text>
<g
                     transform="translate(329.183,58.764)"
                     id="g658" /></g></g><g
                 transform="translate(-201.226,126.717)"
                 id="g660" /></g></g></g></g></g></g></svg>